<svg xmlns="http://www.w3.org/2000/svg" xmlns:xlink="http://www.w3.org/1999/xlink" version="1.1" x="0px" y="0px" viewBox="0 0 100 125" style="enable-background:new 0 0 100 100;" xml:space="preserve"><title>Nature-Feuille_simple</title><path d="M97.8,11.2c0-0.1,0-0.1,0-0.2s0-0.1,0-0.2c0-0.2-0.1-0.3-0.1-0.5c0-0.1,0-0.1-0.1-0.1c-0.1-0.2-0.2-0.4-0.3-0.6l-0.1-0.1  c-0.1-0.1-0.2-0.3-0.3-0.4L96.8,9c-0.1-0.1-0.2-0.2-0.4-0.3l-0.1-0.1c-0.2-0.1-0.4-0.2-0.6-0.3l-0.2-0.1l-0.3-0.1h-0.1L94.9,8  c-0.2,0-0.3,0-0.5,0h-0.2c-0.2,0-0.4,0-0.6,0l-0.3,0.1L93,8.1l-0.3,0.1l-0.3,0.1l-0.3,0.2c-0.1,0.1-0.3,0.2-0.4,0.3l-0.2,0.2  l-0.2,0.2C80.5,22.4,71.8,22.6,60.8,22.8C55.1,22.9,49.1,23,42.3,25c-7.1,2.1-12.2,6.5-14.9,12.6c-3.1,7.3-2.3,15.4-0.6,21.1  c-6.4-1-14.2-5.1-17.2-7c-1.2-0.8-2.8-0.7-4,0.1c-2.7,1.9-6.8,6.8-5.2,13.3C3,75.5,11.6,75.5,15.2,75.5c2,0,3.6-1.6,3.7-3.6  C2.1,67,8.3,59.5,8.3,59.5c5.1,2.8,16.2,8.2,24.6,6.5c2-0.4,3.3-2.3,2.9-4.3c-0.1-0.3-0.2-0.6-0.3-0.9c-2.1-4.1-4.2-13.2-1.2-20.2  c1.8-4.2,5.2-7,10.3-8.5c5.8-1.7,11.2-1.8,16.5-1.9c8-0.1,16.2-0.3,25-6c1-0.6,2.5,0.5,2.1,1.8c-7,26.6-28.9,30.6-34.1,32.5  c-0.6,0.4-0.9,1.1-0.8,1.8c0.6,1.3,1.9,2.1,3.3,2.1c0.2,0,0.3,0,0.5,0c15.4-2,27.2-10.5,34.2-24.7c0.2-0.4,1.3,0.1,1.4,1.4  c0.5,19.8-2.8,31.8-14.7,40.3c-7.1,5.1-18.1,6.9-26.7,4.5c-3.4-0.9-7.7-2.9-9.8-7.1c-2.2-0.3-4.4-0.7-6.7-1.1  c-0.7,1-0.8,2.3-0.3,3.4c2.4,5.6,7.7,9.9,14.8,11.9c3.3,0.9,6.6,1.3,10,1.3c8.2,0.1,16.2-2.4,22.9-6.9  C102.5,70.6,101.7,47.5,97.8,11.2z"/><text x="0" y="115" fill="#000000" font-size="5px" font-weight="bold" font-family="'Helvetica Neue', Helvetica, Arial-Unicode, Arial, Sans-serif">Created by Olivier M.</text><text x="0" y="120" fill="#000000" font-size="5px" font-weight="bold" font-family="'Helvetica Neue', Helvetica, Arial-Unicode, Arial, Sans-serif">from the Noun Project</text></svg>