<svg xmlns="http://www.w3.org/2000/svg" xmlns:xlink="http://www.w3.org/1999/xlink" version="1.1" x="0px" y="0px" viewBox="0 0 100 100" style="enable-background:new 0 0 100 100">
	<g>
		<path class="st0" d="M50,15.7C31,15.7,15.7,31,15.7,50C15.7,69,31,84.3,50,84.3C69,84.3,84.3,69,84.3,50C84.3,31,69,15.7,50,15.7z "/>
		<path class="st0" d="M57.5,57.5L29.4,70.6l13.1-28.1l28.1-13.1L57.5,57.5z"/>
		<path class="st0" d="M50,45.6c-2.4,0-4.4,2-4.4,4.4c0,2.4,2,4.4,4.4,4.4c2.4,0,4.4-2,4.4-4.4C54.4,47.6,52.4,45.6,50,45.6z"/>
	</g>
</svg>